<svg width="202" height="199" viewBox="0 0 202 199" fill="none" xmlns="http://www.w3.org/2000/svg">
<path d="M106.613 83.8382C106.613 82.6487 107.363 81.5885 108.485 81.1927L198.262 49.5067C200.087 48.8625 202.001 50.2166 202.001 52.1523V162.982C202.001 164.171 201.251 165.232 200.129 165.628L110.352 197.313C108.527 197.958 106.613 196.604 106.613 194.668V83.8382Z" fill="black"/>
<path d="M98.2017 0.491782C100.115 -0.16167 102.178 -0.163975 104.092 0.485199L194.424 33.8133C196.991 34.6839 197.048 38.4358 194.508 39.3898L103.803 70.6312C101.717 71.4148 99.4329 71.412 97.3488 70.6235L7.47637 39.3855C4.94499 38.4276 5.00184 34.6876 7.56108 33.8133L98.2017 0.491782Z" fill="#D6D6D6"/>
<path d="M95.3867 83.8382C95.3867 82.6487 94.6366 81.5885 93.515 81.1927L3.73812 49.5067C1.91282 48.8625 -0.00106859 50.2166 -0.00106859 52.1523V162.982C-0.00106859 164.171 0.749025 165.232 1.87068 165.628L91.6475 197.313C93.4728 197.958 95.3867 196.604 95.3867 194.668V83.8382Z" fill="#E1FF00"/>
</svg>
